<?xml version="1.0" encoding="UTF-8" standalone="no"?>
<!-- Created with Inkscape (http://www.inkscape.org/) -->

<svg
   width="210mm"
   height="297mm"
   viewBox="0 0 210 297"
   version="1.1"
   id="svg834"
   inkscape:version="1.1 (c4e8f9ed74, 2021-05-24)"
   sodipodi:docname="30.svg"
   xmlns:inkscape="http://www.inkscape.org/namespaces/inkscape"
   xmlns:sodipodi="http://sodipodi.sourceforge.net/DTD/sodipodi-0.dtd"
   xmlns:xlink="http://www.w3.org/1999/xlink"
   xmlns="http://www.w3.org/2000/svg"
   xmlns:svg="http://www.w3.org/2000/svg">
  <sodipodi:namedview
     id="namedview836"
     pagecolor="#505050"
     bordercolor="#eeeeee"
     borderopacity="1"
     inkscape:pageshadow="0"
     inkscape:pageopacity="0"
     inkscape:pagecheckerboard="0"
     inkscape:document-units="mm"
     showgrid="false"
     showguides="true"
     inkscape:guide-bbox="true"
     inkscape:zoom="1.4142136"
     inkscape:cx="316.78384"
     inkscape:cy="860.9025"
     inkscape:window-width="1920"
     inkscape:window-height="1022"
     inkscape:window-x="0"
     inkscape:window-y="32"
     inkscape:window-maximized="1"
     inkscape:current-layer="g158899" />
  <defs
     id="defs831">
    <clipPath
       id="clipPath6363"
       clipPathUnits="userSpaceOnUse">
      <path
         id="path6365"
         d="M 0,0 H 480 V 480 H 0 Z" />
    </clipPath>
  </defs>
  <g
     inkscape:label="Layer 1"
     inkscape:groupmode="layer"
     id="layer1">
    <g
       id="g66503"
       transform="matrix(1.8533994,0,0,1.8533994,20.454124,-24.631589)">
      <g
         id="g944"
         transform="matrix(0.27753051,0,0,0.27753051,6.0171448,22.12299)">
        <circle
           style="fill:#ffffff;stroke:#000000;stroke-width:0.264583"
           cx="142.68524"
           cy="101.98193"
           r="79.242706"
           id="circle2" />
        <path
           style="fill:#c1121c;stroke:none;stroke-width:0.264583"
           d="m 142.68624,25.748438 c -42.10546,0 -76.235492,34.128027 -76.235492,76.233492 0,42.09994 34.130032,76.23349 76.235492,76.23349 42.09744,0 76.2335,-34.13355 76.2335,-76.23349 0,-42.105465 -34.13606,-76.233492 -76.2335,-76.233492 z m 0,20.061443 c 31.02052,0 56.17205,25.14953 56.17205,56.172049 0,31.02302 -25.15153,56.17405 -56.17205,56.17405 -31.02301,0 -56.174048,-25.15103 -56.174048,-56.17405 0,-31.022519 25.151038,-56.172049 56.174048,-56.172049 z"
           id="path4" />
        <path
           style="fill:#000000;stroke:none;stroke-width:0.264583"
           d="m 99.524548,118.36812 h 9.500102 c 1.29095,5.33684 6.67243,8.61839 12.00928,7.32142 4.46467,-1.07931 7.6073,-5.07203 7.6073,-9.6646 v -1.16958 c 0,-5.49734 -4.45114,-9.94847 -9.94847,-9.94847 h -4.09454 v -8.189085 h 4.09454 c 5.16833,0 9.36067,-4.192339 9.36067,-9.36669 0,-5.167828 -4.19234,-9.360669 -9.36067,-9.360669 -4.49427,0 -8.35359,3.197293 -9.19617,7.6073 h -9.44493 c 0.96997,-10.295033 10.09943,-17.853181 20.39447,-16.887222 9.62147,0.908783 16.97398,8.982511 16.97398,18.640591 0,5.330828 -2.59795,10.330643 -6.95279,13.400545 4.70742,3.14864 7.53458,8.43784 7.53458,14.1037 v 1.16958 c 0,10.65965 -8.64348,19.30914 -19.30914,19.30914 -9.7604,0 -17.98659,-7.2798 -19.168212,-16.96596"
           id="path6" />
        <path
           style="fill:#000000;stroke:none;stroke-width:0.264583"
           d="m 156.72123,116.60873 c 0,5.17435 4.19284,9.35916 9.36669,9.35916 5.16833,0 9.36067,-4.18481 9.36067,-9.35916 V 87.351115 c 0,-5.167828 -4.19234,-9.360669 -9.36067,-9.360669 -5.17385,0 -9.36669,4.192841 -9.36669,9.360669 z m -9.35866,0 V 87.351115 c 0,-10.338162 8.38317,-18.721339 18.72535,-18.721339 10.34418,0 18.72736,8.383177 18.72736,18.721339 v 29.257615 c 0,10.34217 -8.38318,18.72535 -18.72736,18.72535 -10.34218,0 -18.72535,-8.38318 -18.72535,-18.72535"
           id="path8" />
      </g>
      <text
         xml:space="preserve"
         style="font-style:normal;font-weight:normal;font-size:8.46667px;line-height:6.61458px;font-family:sans-serif;letter-spacing:0px;word-spacing:0px;fill:#000000;fill-opacity:1;stroke:none;stroke-width:0.264583"
         id="text3434"
         inkscape:transform-center-x="0.86161914"
         inkscape:transform-center-y="-21.927455"
         transform="rotate(-134.47375,35.743781,88.688414)"><textPath
           xlink:href="#path36981"
           id="textPath37063"><tspan
             id="tspan3432"
             style="font-weight:bold;stroke-width:0.264583"
             dy="-0.9921875">GERNE</tspan></textPath></text>
      <text
         xml:space="preserve"
         style="font-style:normal;font-weight:normal;font-size:8.46667px;line-height:6.61458px;font-family:sans-serif;letter-spacing:0px;word-spacing:0px;fill:#000000;fill-opacity:1;stroke:none;stroke-width:0.264583"
         id="text9114"
         transform="translate(-80.908107,-49.185168)"><textPath
           xlink:href="#circle37088"
           id="textPath37096"><tspan
             id="tspan9112"
             style="font-weight:bold;stroke-width:0.264583"
             dy="7.2760434">INNERORTS</tspan></textPath></text>
    </g>
    <circle
       style="opacity:0.745185;fill:none;stroke:none;stroke-width:0.62138;stroke-linejoin:round;stop-color:#000000"
       id="path36981"
       cx="57.71994"
       cy="124.59278"
       r="21.718309" />
    <circle
       style="opacity:0.745185;fill:#c4a000;stroke:#000000;stroke-width:0.000238593;stroke-linejoin:round;stop-color:#000000"
       id="circle37066"
       cx="57.71994"
       cy="124.59279"
       r="0.0083392244" />
    <circle
       style="opacity:0.745185;fill:none;stroke:none;stroke-width:0.62138;stroke-linejoin:round;stop-color:#000000"
       id="circle37088"
       cx="-89.741028"
       cy="135.76044"
       r="21.718309"
       transform="matrix(-0.95342265,0.30163761,0.30163761,0.95342265,0,0)" />
    <circle
       style="opacity:0.745185;fill:#c4a000;stroke:#000000;stroke-width:0.000238593;stroke-linejoin:round;stop-color:#000000"
       id="circle37090"
       cx="126.51158"
       cy="124.59279"
       r="0.0083392244" />
    <g
       transform="matrix(0.19005595,0,0,-0.19005595,59.386572,281.0926)"
       id="g6353">
      <g
         id="g6355">
        <g
           id="g158899">
          <g
             id="g6357">
            <path
               id="path6369"
               style="fill:#ffffff;fill-opacity:1;fill-rule:nonzero;stroke:none"
               d="m 32.414,0.484 c -17.633,0 -31.93,14.297 -31.93,31.942 v 554.38539 c 0,17.632 14.297,31.929 31.93,31.929 h 415.172 c 17.644,0 31.941,-14.297 31.941,-31.929 V 32.426 c 0,-17.645 -14.297,-31.942 -31.941,-31.942"
               sodipodi:nodetypes="cssssssc" />
            <path
               id="path6371"
               style="fill:#000000;fill-opacity:1;fill-rule:nonzero;stroke:none"
               d="M 32.414,619.22539 C 14.539,619.22539 0,604.67439 0,586.81139 V 32.426 C 0,14.551 14.539,0 32.414,0 H 447.586 C 465.461,0 480,14.551 480,32.426 v 554.38539 c 0,17.863 -14.539,32.414 -32.414,32.414 z m 0,-0.485 h 415.172 c 17.644,0 31.941,-14.297 31.941,-31.929 V 32.426 C 479.527,14.781 465.23,0.484 447.586,0.484 H 32.414 c -17.637,0 -31.93,14.297 -31.93,31.942 v 554.38539 c 0,17.632 14.293,31.929 31.93,31.929 z"
               sodipodi:nodetypes="ssssssssssssssssss" />
          </g>
          <path
             id="path6373"
             style="fill:#000000;fill-opacity:1;fill-rule:nonzero;stroke:none"
             d="m 32.414,610.75639 c -13.219,0 -23.949,-10.727 -23.949,-23.945 V 32.426 c 0,-13.231 10.73,-23.961 23.949,-23.961 h 415.172 c 13.23,0 23.949,10.73 23.949,23.961 v 554.38539 c 0,13.218 -10.719,23.945 -23.949,23.945 z m 0,-11.973 h 415.172 c 6.613,0 11.973,-5.371 11.973,-11.972 V 32.426 c 0,-6.614 -5.36,-11.985 -11.973,-11.985 H 32.414 c -6.617,0 -11.973,5.371 -11.973,11.985 v 554.38539 c 0,6.601 5.356,11.972 11.973,11.972 z"
             sodipodi:nodetypes="ssssssssssssssssss" />
          <g
             id="g158904"
             transform="translate(0,13.27112)">
            <path
               id="path6375"
               style="fill:#c1121c;fill-opacity:1;fill-rule:nonzero;stroke:none"
               d="m 240.008,437.473 c -83.953,0 -152.004,-68.047 -152.004,-152 0,-83.942 68.051,-152 152.004,-152 83.937,0 152,68.058 152,152 0,83.953 -68.063,152 -152,152 z m 0,-40 c 61.851,0 112,-50.145 112,-112 0,-61.856 -50.149,-112.004 -112,-112.004 -61.856,0 -112.004,50.148 -112.004,112.004 0,61.855 50.148,112 112.004,112 z" />
            <path
               id="path6377"
               style="fill:#000000;fill-opacity:1;fill-rule:nonzero;stroke:none"
               d="m 153.949,252.801 h 18.942 c 2.574,-10.641 13.304,-17.184 23.945,-14.598 8.902,2.152 15.168,10.113 15.168,19.27 v 2.332 c 0,10.961 -8.875,19.836 -19.836,19.836 h -8.164 v 16.328 h 8.164 c 10.305,0 18.664,8.359 18.664,18.676 0,10.304 -8.359,18.664 -18.664,18.664 -8.961,0 -16.656,-6.375 -18.336,-15.168 H 155 c 1.934,20.527 20.137,35.597 40.664,33.671 19.184,-1.812 33.844,-17.91 33.844,-37.167 0,-10.629 -5.18,-20.598 -13.863,-26.719 9.386,-6.278 15.023,-16.824 15.023,-28.121 v -2.332 c 0,-21.254 -17.234,-38.5 -38.5,-38.5 -19.461,0 -35.863,14.515 -38.219,33.828" />
            <path
               id="path6379"
               style="fill:#000000;fill-opacity:1;fill-rule:nonzero;stroke:none"
               d="m 267.992,256.309 c 0,-10.317 8.36,-18.661 18.676,-18.661 10.305,0 18.664,8.344 18.664,18.661 v 58.336 c 0,10.304 -8.359,18.664 -18.664,18.664 -10.316,0 -18.676,-8.36 -18.676,-18.664 z m -18.66,0 v 58.336 c 0,20.613 16.715,37.328 37.336,37.328 20.625,0 37.34,-16.715 37.34,-37.328 v -58.336 c 0,-20.621 -16.715,-37.336 -37.34,-37.336 -20.621,0 -37.336,16.715 -37.336,37.336" />
          </g>
          <text
             xml:space="preserve"
             style="font-style:normal;font-weight:normal;font-size:73.9778px;line-height:57.7951px;font-family:sans-serif;letter-spacing:-1.39213px;word-spacing:0px;fill:#000000;fill-opacity:1;stroke:none;stroke-width:1.73385"
             x="68.390808"
             y="-391.87411"
             id="text71439"
             transform="scale(0.80291251,-1.2454657)"><tspan
               sodipodi:role="line"
               id="tspan71437"
               style="font-style:normal;font-variant:normal;font-weight:800;font-stretch:normal;font-size:73.9778px;font-family:Cantarell;-inkscape-font-specification:'Cantarell Ultra-Bold';stroke-width:1.73385"
               x="68.390808"
               y="-391.87411">ICH  BIN EINE</tspan></text>
          <text
             xml:space="preserve"
             style="font-style:normal;font-weight:normal;font-size:73.9778px;line-height:57.7951px;font-family:sans-serif;letter-spacing:-1.39213px;word-spacing:0px;fill:#000000;fill-opacity:1;stroke:none;stroke-width:1.73385"
             x="196.10638"
             y="-35.467018"
             id="text159178"
             transform="scale(0.80291251,-1.2454657)"><tspan
               sodipodi:role="line"
               id="tspan159176"
               style="font-style:normal;font-variant:normal;font-weight:800;font-stretch:normal;font-size:73.9778px;font-family:Cantarell;-inkscape-font-specification:'Cantarell Ultra-Bold';stroke-width:1.73385"
               x="196.10638"
               y="-35.467018">ZONE</tspan></text>
        </g>
      </g>
    </g>
    <path
       style="fill:none;stroke:#000000;stroke-width:2;stroke-linecap:round;stroke-linejoin:miter;stroke-opacity:1;stroke-miterlimit:4;stroke-dasharray:none"
       d="M 19.882738,147.56312 H 186.90039"
       id="path158939" />
  </g>
</svg>
